<svg width="750" height="471" viewBox="0 0 750 471" fill="none" xmlns="http://www.w3.org/2000/svg">
<path d="M710 0H40C17.9086 0 0 17.9086 0 40V431C0 453.091 17.9086 471 40 471H710C732.091 471 750 453.091 750 431V40C750 17.9086 732.091 0 710 0Z" fill="white"/>
<path d="M278.198 334.228L311.559 138.466H364.918L331.534 334.228H278.198Z" fill="#18145F"/>
<path d="M524.307 142.688C513.735 138.722 497.171 134.466 476.484 134.466C423.76 134.466 386.621 161.017 386.305 199.07C386.008 227.199 412.819 242.891 433.059 252.255C453.828 261.85 460.81 267.97 460.711 276.538C460.579 289.66 444.126 295.655 428.789 295.655C407.432 295.655 396.086 292.688 378.562 285.379L371.686 282.267L364.198 326.091C376.661 331.555 399.706 336.29 423.635 336.535C479.724 336.535 516.136 310.288 516.55 269.653C516.751 247.384 502.535 230.436 471.751 216.465C453.1 207.409 441.678 201.366 441.799 192.196C441.799 184.059 451.468 175.358 472.357 175.358C489.806 175.087 502.444 178.892 512.292 182.858L517.075 185.117L524.307 142.688Z" fill="#18145F"/>
<path d="M661.615 138.466H620.383C607.61 138.466 598.053 141.952 592.443 154.7L513.198 334.103H569.229C569.229 334.103 578.391 309.981 580.463 304.685C586.586 304.685 641.017 304.769 648.799 304.769C650.395 311.622 655.291 334.103 655.291 334.103H704.802L661.615 138.466ZM596.198 264.873C600.611 253.594 617.456 210.15 617.456 210.15C617.141 210.671 621.836 198.816 624.531 191.466L628.138 208.344C628.138 208.344 638.355 255.073 640.49 264.872H596.198V264.873Z" fill="#18145F"/>
<path d="M45.8789 138.465L45.1973 142.539C66.2883 147.645 85.1265 155.033 101.619 164.225L148.965 333.916L205.42 333.85L289.424 138.465H232.902L180.662 271.961L175.096 244.832C174.838 244.004 174.559 243.173 174.273 242.342L156.107 154.992C152.877 142.596 143.509 138.897 131.92 138.465H45.8789Z" fill="#18145F"/>
</svg>
